<?xml version="1.0" standalone="no"?>
<!DOCTYPE svg PUBLIC "-//W3C//DTD SVG 20010904//EN"
 "http://www.w3.org/TR/2001/REC-SVG-20010904/DTD/svg10.dtd">
<svg version="1.0" xmlns="http://www.w3.org/2000/svg"
 width="400.000000pt" height="400.000000pt" viewBox="0 0 400.000000 400.000000"
 preserveAspectRatio="xMidYMid meet">
<metadata>
Created by potrace 1.11, written by Peter Selinger 2001-2013
</metadata>
<g transform="translate(0.000000,400.000000) scale(0.100000,-0.100000)"
fill="#000000" stroke="none">
<path d="M2353 3929 c-163 -51 -243 -231 -169 -384 101 -206 389 -206 499 -1
31 58 30 183 -1 242 -30 58 -78 103 -137 130 -68 31 -121 34 -192 13z"/>
<path d="M1467 3928 c-77 -16 -148 -73 -187 -148 -35 -67 -34 -177 2 -245 132
-252 516 -169 521 112 1 95 -19 147 -78 206 -65 65 -167 95 -258 75z"/>
<path d="M1745 3180 c-163 -30 -224 -48 -360 -105 -348 -146 -646 -435 -805
-780 -47 -101 -112 -301 -111 -340 0 -2 -4 -19 -9 -36 -13 -45 -24 -187 -24
-299 1 -118 12 -216 35 -320 6 -25 12 -52 14 -60 31 -150 173 -429 295 -582
76 -95 228 -236 320 -298 12 -8 33 -23 46 -33 42 -32 246 -133 324 -160 138
-47 255 -73 384 -84 371 -31 722 61 1031 270 113 77 309 272 392 390 96 137
212 389 237 517 2 14 12 63 22 110 18 91 25 357 12 462 -10 79 -36 200 -53
248 -8 22 -14 43 -14 45 1 12 -45 124 -81 199 -76 160 -170 289 -316 433 -76
75 -250 213 -269 213 -3 0 -27 14 -54 30 -108 67 -355 157 -476 175 -22 3 -64
9 -94 14 -98 15 -338 11 -446 -9z m466 -315 c177 -30 375 -113 517 -217 89
-64 241 -224 305 -319 162 -243 237 -549 203 -824 -13 -104 -18 -130 -42 -214
-89 -306 -314 -588 -596 -744 -120 -66 -308 -128 -438 -145 -72 -9 -260 -8
-333 1 -394 52 -763 319 -945 682 -135 271 -167 580 -90 875 19 72 86 241 104
261 8 8 14 19 14 23 0 4 20 38 44 74 100 154 216 268 375 371 162 105 358 173
541 188 36 3 66 6 68 8 8 7 194 -6 273 -20z"/>
</g>
</svg>
