<?xml version="1.0" encoding="utf-8"?>
<!-- Generator: Adobe Illustrator 24.0.3, SVG Export Plug-In . SVG Version: 6.00 Build 0)  -->
<svg version="1.1" id="Layer_1" xmlns="http://www.w3.org/2000/svg" xmlns:xlink="http://www.w3.org/1999/xlink" x="0px" y="0px"
	 viewBox="0 0 50 50" style="enable-background:new 0 0 50 50;" xml:space="preserve">
<style type="text/css">
	.st0{fill:none;stroke:#000000;stroke-width:2;stroke-miterlimit:10;}
</style>
<path class="st0" d="M18,22.5V14c0,0,0.1-7.3,7.1-7.3c6.9,0,7.1,7.3,7.1,7.3v8.5"/>
<path class="st0" d="M10.4,16.5c0,0,0.3-0.8,0.8-0.8c0.4,0,28.4,0,28.4,0s0.8,0.3,0.8,0.6c0,0.3,1.7,24,1.7,24s-0.2,1.1-0.5,1.2
	c-0.3,0.1-31.5,0-31.5,0s-1-0.4-1-1S10.4,16.5,10.4,16.5z"/>
</svg>
