<svg xmlns="http://www.w3.org/2000/svg" xmlns:xlink="http://www.w3.org/1999/xlink" width="582" height="303" viewBox="0 0 582 303">
  <defs>
    <clipPath id="clip-splash_mobil">
      <rect width="582" height="303"/>
    </clipPath>
  </defs>
  <g id="splash_mobil" clip-path="url(#clip-splash_mobil)">
    <path id="Path_197" data-name="Path 197" d="M749.68,56.92h38.212a121.885,121.885,0,0,1,14.1.656,45.716,45.716,0,0,1,23.9,9.758,51.561,51.561,0,0,1,15.293,20.787,72.05,72.05,0,0,1,5.248,27.839,72.05,72.05,0,0,1-5.248,27.839A51.561,51.561,0,0,1,825.9,164.586a45.716,45.716,0,0,1-23.9,9.758,121.884,121.884,0,0,1-14.1.656H749.68Zm38.212,97.088a71.716,71.716,0,0,0,12.792-.82,21.912,21.912,0,0,0,12.341-7.011,35.282,35.282,0,0,0,7.38-13.448,59.372,59.372,0,0,0-.082-33.825,34.978,34.978,0,0,0-7.462-13.366,21.694,21.694,0,0,0-12.177-6.806,34.97,34.97,0,0,0-5.9-.7q-3.2-.123-6.888-.123h-15.58v76.1ZM924.34,24.776h19.68v19.68H924.34Zm-34.768,0h19.68v19.68h-19.68ZM916.8,177.46q-17.466,0-30.422-7.667a50.736,50.736,0,0,1-19.885-21.607q-6.929-13.94-6.929-32.226t6.929-32.226a50.736,50.736,0,0,1,19.885-21.607Q899.33,54.46,916.8,54.46t30.422,7.667A50.736,50.736,0,0,1,967.1,83.734q6.929,13.94,6.929,32.226T967.1,148.186a50.736,50.736,0,0,1-19.885,21.607Q934.262,177.46,916.8,177.46Zm0-20.992q10.988.164,18.532-4.8a30.086,30.086,0,0,0,11.316-14.1q3.772-9.143,3.772-21.607,0-12.382-3.772-21.443a29.978,29.978,0,0,0-11.275-13.981q-7.5-4.92-18.573-5.084-10.988-.164-18.532,4.8a30.086,30.086,0,0,0-11.316,14.1q-3.772,9.143-3.772,21.607,0,12.382,3.772,21.443a29.978,29.978,0,0,0,11.275,13.981Q905.726,156.3,916.8,156.468Zm122.836,20.992a55.9,55.9,0,0,1-27.962-7.175,51.976,51.976,0,0,1-20.254-21.074q-7.544-13.9-7.544-33.251,0-19.024,7.38-32.964a51.688,51.688,0,0,1,20.09-21.238,55.791,55.791,0,0,1,28.29-7.3q22.3,0,35.547,10.373t17.753,30.135l-22.8,3.28q-3.28-10.66-10.66-16.687t-18.368-6.109q-10.988-.164-18.532,4.8a30.086,30.086,0,0,0-11.316,14.1q-3.772,9.143-3.772,21.607,0,12.382,3.772,21.443a29.978,29.978,0,0,0,11.275,13.981q7.5,4.92,18.573,5.084,11.808.246,19.762-6.437t10.578-20.3h-18.7v-17.22h42.476q.164,1.64.246,3.731t.082,3.157q0,16.892-6.888,30.094a50.169,50.169,0,0,1-19.557,20.582Q1056.442,177.46,1039.632,177.46Zm121.524,0a55.9,55.9,0,0,1-27.962-7.175,51.977,51.977,0,0,1-20.254-21.074q-7.544-13.9-7.544-33.251,0-19.024,7.38-32.964a51.689,51.689,0,0,1,20.09-21.238,55.791,55.791,0,0,1,28.29-7.3q22.3,0,35.547,10.373t17.753,30.135l-22.8,3.28q-3.28-10.66-10.66-16.687t-18.368-6.109q-10.988-.164-18.532,4.8a30.085,30.085,0,0,0-11.316,14.1q-3.772,9.143-3.772,21.607,0,12.382,3.772,21.443a29.977,29.977,0,0,0,11.275,13.981q7.5,4.92,18.573,5.084,11.808.246,19.762-6.437t10.578-20.3h-18.7v-17.22h42.476q.164,1.64.246,3.731t.082,3.157q0,16.892-6.888,30.094a50.17,50.17,0,0,1-19.557,20.582Q1177.966,177.46,1161.156,177.46Z" transform="translate(-634 -25)"/>
    <path id="Path_198" data-name="Path 198" d="M749.68,56.92h38.212a121.885,121.885,0,0,1,14.1.656,45.716,45.716,0,0,1,23.9,9.758,51.561,51.561,0,0,1,15.293,20.787,72.05,72.05,0,0,1,5.248,27.839,72.05,72.05,0,0,1-5.248,27.839A51.561,51.561,0,0,1,825.9,164.586a45.716,45.716,0,0,1-23.9,9.758,121.884,121.884,0,0,1-14.1.656H749.68Zm38.212,97.088a71.716,71.716,0,0,0,12.792-.82,21.912,21.912,0,0,0,12.341-7.011,35.282,35.282,0,0,0,7.38-13.448,59.372,59.372,0,0,0-.082-33.825,34.978,34.978,0,0,0-7.462-13.366,21.694,21.694,0,0,0-12.177-6.806,34.97,34.97,0,0,0-5.9-.7q-3.2-.123-6.888-.123h-15.58v76.1ZM924.34,24.776h19.68v19.68H924.34Zm-34.768,0h19.68v19.68h-19.68ZM916.8,177.46q-17.466,0-30.422-7.667a50.736,50.736,0,0,1-19.885-21.607q-6.929-13.94-6.929-32.226t6.929-32.226a50.736,50.736,0,0,1,19.885-21.607Q899.33,54.46,916.8,54.46t30.422,7.667A50.736,50.736,0,0,1,967.1,83.734q6.929,13.94,6.929,32.226T967.1,148.186a50.736,50.736,0,0,1-19.885,21.607Q934.262,177.46,916.8,177.46Zm0-20.992q10.988.164,18.532-4.8a30.086,30.086,0,0,0,11.316-14.1q3.772-9.143,3.772-21.607,0-12.382-3.772-21.443a29.978,29.978,0,0,0-11.275-13.981q-7.5-4.92-18.573-5.084-10.988-.164-18.532,4.8a30.086,30.086,0,0,0-11.316,14.1q-3.772,9.143-3.772,21.607,0,12.382,3.772,21.443a29.978,29.978,0,0,0,11.275,13.981Q905.726,156.3,916.8,156.468Zm122.836,20.992a55.9,55.9,0,0,1-27.962-7.175,51.976,51.976,0,0,1-20.254-21.074q-7.544-13.9-7.544-33.251,0-19.024,7.38-32.964a51.688,51.688,0,0,1,20.09-21.238,55.791,55.791,0,0,1,28.29-7.3q22.3,0,35.547,10.373t17.753,30.135l-22.8,3.28q-3.28-10.66-10.66-16.687t-18.368-6.109q-10.988-.164-18.532,4.8a30.086,30.086,0,0,0-11.316,14.1q-3.772,9.143-3.772,21.607,0,12.382,3.772,21.443a29.978,29.978,0,0,0,11.275,13.981q7.5,4.92,18.573,5.084,11.808.246,19.762-6.437t10.578-20.3h-18.7v-17.22h42.476q.164,1.64.246,3.731t.082,3.157q0,16.892-6.888,30.094a50.169,50.169,0,0,1-19.557,20.582Q1056.442,177.46,1039.632,177.46Zm121.524,0a55.9,55.9,0,0,1-27.962-7.175,51.977,51.977,0,0,1-20.254-21.074q-7.544-13.9-7.544-33.251,0-19.024,7.38-32.964a51.689,51.689,0,0,1,20.09-21.238,55.791,55.791,0,0,1,28.29-7.3q22.3,0,35.547,10.373t17.753,30.135l-22.8,3.28q-3.28-10.66-10.66-16.687t-18.368-6.109q-10.988-.164-18.532,4.8a30.085,30.085,0,0,0-11.316,14.1q-3.772,9.143-3.772,21.607,0,12.382,3.772,21.443a29.977,29.977,0,0,0,11.275,13.981q7.5,4.92,18.573,5.084,11.808.246,19.762-6.437t10.578-20.3h-18.7v-17.22h42.476q.164,1.64.246,3.731t.082,3.157q0,16.892-6.888,30.094a50.17,50.17,0,0,1-19.557,20.582Q1177.966,177.46,1161.156,177.46Z" transform="translate(-634 -25)"/>
    <path id="Path_196" data-name="Path 196" d="M108.946,56.36h37.746a120.4,120.4,0,0,1,13.932.648,45.158,45.158,0,0,1,23.611,9.639,50.932,50.932,0,0,1,15.106,20.534,71.171,71.171,0,0,1,5.184,27.5,71.171,71.171,0,0,1-5.184,27.5,50.932,50.932,0,0,1-15.106,20.533,45.158,45.158,0,0,1-23.611,9.639,120.4,120.4,0,0,1-13.932.648H108.946Zm37.746,95.9a70.84,70.84,0,0,0,12.636-.81,21.645,21.645,0,0,0,12.191-6.925,34.852,34.852,0,0,0,7.29-13.284,58.647,58.647,0,0,0-.081-33.413,34.551,34.551,0,0,0-7.371-13.2,21.429,21.429,0,0,0-12.028-6.723,34.544,34.544,0,0,0-5.832-.688q-3.159-.122-6.8-.121H131.3v75.168Zm77.274-95.9h76.14V76.934H246v24.948h44.388v20.574H246v29.97h54.108V173h-76.14ZM363.61,175.43a57.4,57.4,0,0,1-23.368-4.617,42.364,42.364,0,0,1-25.555-33.453l23-3.4a27.622,27.622,0,0,0,5.589,11.3,25.594,25.594,0,0,0,9.6,7.168,30.428,30.428,0,0,0,12.19,2.43,32.874,32.874,0,0,0,10.692-1.742,20.031,20.031,0,0,0,8.3-5.143,11.319,11.319,0,0,0,3.2-8.019,10.515,10.515,0,0,0-1.013-4.617,10.881,10.881,0,0,0-3.483-3.928,22.238,22.238,0,0,0-6.845-3.118l-30.294-8.91a62.278,62.278,0,0,1-12.19-4.779,27.927,27.927,0,0,1-9.882-9.234q-4.334-6.318-4.333-16.443,0-11.34,5.751-19.238A34.385,34.385,0,0,1,340.606,57.9,59.108,59.108,0,0,1,362.8,54.092a57.363,57.363,0,0,1,21.546,4.131,41.171,41.171,0,0,1,15.876,11.583,46.509,46.509,0,0,1,9.234,18.468l-23.814,4.05a20.654,20.654,0,0,0-4.7-9.436,23.243,23.243,0,0,0-8.262-5.994,28.635,28.635,0,0,0-20.047-.81,17.348,17.348,0,0,0-7.452,4.657,10.184,10.184,0,0,0-2.794,7.047,8.632,8.632,0,0,0,2.187,5.994,15.431,15.431,0,0,0,5.508,3.848,59.211,59.211,0,0,0,7.857,2.632l20.25,5.508A98.181,98.181,0,0,1,393.54,111.2a31.513,31.513,0,0,1,11.785,9.72q5.1,6.642,5.1,17.415,0,11.988-6.521,20.372A39.437,39.437,0,0,1,386.7,171.258,62.957,62.957,0,0,1,363.61,175.43ZM429.868,56.36H451.9V173H429.868ZM524.8,175.43a55.217,55.217,0,0,1-27.621-7.087,51.342,51.342,0,0,1-20.007-20.817Q469.72,133.8,469.72,114.68q0-18.792,7.29-32.562a51.058,51.058,0,0,1,19.845-20.979A55.111,55.111,0,0,1,524.8,53.93q22.032,0,35.113,10.246T577.45,93.944l-22.518,3.24q-3.24-10.53-10.53-16.483t-18.144-6.035Q515.4,74.5,507.952,79.4a29.719,29.719,0,0,0-11.178,13.932q-3.726,9.032-3.726,21.343,0,12.231,3.726,21.182a29.612,29.612,0,0,0,11.137,13.811q7.411,4.86,18.346,5.022,11.664.243,19.521-6.359t10.449-20.048H537.76v-17.01h41.958q.162,1.62.243,3.686t.081,3.118q0,16.686-6.8,29.727a49.558,49.558,0,0,1-19.319,20.331Q541.405,175.43,524.8,175.43ZM596.242,56.36H618.6L669.3,134.12V56.36H691.66V173H669.3L618.6,95.24V173H596.242Z" transform="translate(-109 127)"/>
  </g>
</svg>
