<svg xmlns="http://www.w3.org/2000/svg" xmlns:xlink="http://www.w3.org/1999/xlink" width="582" height="358" viewBox="0 0 582 358">
  <defs>
    <clipPath id="clip-splash_mobil">
      <rect width="582" height="358"/>
    </clipPath>
  </defs>
  <g id="splash_mobil" clip-path="url(#clip-splash_mobil)">
    <path id="Path_197" data-name="Path 197" d="M749.68,56.92h38.212a121.882,121.882,0,0,1,14.1.656,45.716,45.716,0,0,1,23.9,9.758,51.561,51.561,0,0,1,15.293,20.787,72.052,72.052,0,0,1,5.248,27.839,72.051,72.051,0,0,1-5.248,27.839A51.561,51.561,0,0,1,825.9,164.586a45.716,45.716,0,0,1-23.9,9.758,121.879,121.879,0,0,1-14.1.656H749.68Zm38.212,97.088a71.715,71.715,0,0,0,12.792-.82,21.912,21.912,0,0,0,12.341-7.011,35.282,35.282,0,0,0,7.38-13.448,59.372,59.372,0,0,0-.082-33.825,34.977,34.977,0,0,0-7.462-13.366,21.694,21.694,0,0,0-12.177-6.806,34.97,34.97,0,0,0-5.9-.7q-3.2-.123-6.888-.123h-15.58v76.1ZM924.34,24.776h19.68v19.68H924.34Zm-34.768,0h19.68v19.68h-19.68ZM916.8,177.46q-17.466,0-30.422-7.667a50.736,50.736,0,0,1-19.885-21.607q-6.929-13.94-6.929-32.226t6.929-32.226a50.735,50.735,0,0,1,19.885-21.607Q899.33,54.46,916.8,54.46t30.422,7.667A50.736,50.736,0,0,1,967.1,83.734q6.929,13.94,6.929,32.226T967.1,148.186a50.737,50.737,0,0,1-19.885,21.607Q934.262,177.46,916.8,177.46Zm0-20.992q10.988.164,18.532-4.8a30.086,30.086,0,0,0,11.316-14.1q3.772-9.143,3.772-21.607,0-12.382-3.772-21.443a29.978,29.978,0,0,0-11.275-13.981q-7.5-4.92-18.573-5.084-10.988-.164-18.532,4.8a30.086,30.086,0,0,0-11.316,14.1q-3.772,9.143-3.772,21.607,0,12.382,3.772,21.443a29.978,29.978,0,0,0,11.275,13.981Q905.726,156.3,916.8,156.468Zm122.836,20.992a55.9,55.9,0,0,1-27.962-7.175,51.976,51.976,0,0,1-20.254-21.074q-7.544-13.9-7.544-33.251,0-19.024,7.38-32.964a51.688,51.688,0,0,1,20.09-21.238,55.791,55.791,0,0,1,28.29-7.3q22.3,0,35.547,10.373t17.753,30.135l-22.8,3.28q-3.28-10.66-10.66-16.687t-18.368-6.109q-10.988-.164-18.532,4.8a30.086,30.086,0,0,0-11.316,14.1q-3.772,9.143-3.772,21.607,0,12.382,3.772,21.443a29.978,29.978,0,0,0,11.275,13.981q7.5,4.92,18.573,5.084,11.808.246,19.762-6.437t10.578-20.3h-18.7v-17.22h42.476q.164,1.64.246,3.731t.082,3.157q0,16.892-6.888,30.094a50.169,50.169,0,0,1-19.557,20.582q-12.665,7.388-29.475,7.388Zm121.524,0a55.9,55.9,0,0,1-27.962-7.175,51.977,51.977,0,0,1-20.254-21.074q-7.544-13.9-7.544-33.251,0-19.024,7.38-32.964a51.689,51.689,0,0,1,20.09-21.238,55.791,55.791,0,0,1,28.29-7.3q22.3,0,35.547,10.373t17.753,30.135l-22.8,3.28q-3.28-10.66-10.66-16.687t-18.368-6.109q-10.988-.164-18.532,4.8a30.086,30.086,0,0,0-11.316,14.1q-3.772,9.143-3.772,21.607,0,12.382,3.772,21.443a29.977,29.977,0,0,0,11.275,13.981q7.5,4.92,18.573,5.084,11.808.246,19.762-6.437t10.578-20.3h-18.7v-17.22h42.476q.164,1.64.246,3.731t.082,3.157q0,16.892-6.888,30.094a50.171,50.171,0,0,1-19.557,20.582q-12.665,7.388-29.475,7.388Z" transform="translate(-634 -25)"/>
    <path id="Path_198" data-name="Path 198" d="M749.68,56.92h38.212a121.882,121.882,0,0,1,14.1.656,45.716,45.716,0,0,1,23.9,9.758,51.561,51.561,0,0,1,15.293,20.787,72.052,72.052,0,0,1,5.248,27.839,72.051,72.051,0,0,1-5.248,27.839A51.561,51.561,0,0,1,825.9,164.586a45.716,45.716,0,0,1-23.9,9.758,121.879,121.879,0,0,1-14.1.656H749.68Zm38.212,97.088a71.715,71.715,0,0,0,12.792-.82,21.912,21.912,0,0,0,12.341-7.011,35.282,35.282,0,0,0,7.38-13.448,59.372,59.372,0,0,0-.082-33.825,34.977,34.977,0,0,0-7.462-13.366,21.694,21.694,0,0,0-12.177-6.806,34.97,34.97,0,0,0-5.9-.7q-3.2-.123-6.888-.123h-15.58v76.1ZM924.34,24.776h19.68v19.68H924.34Zm-34.768,0h19.68v19.68h-19.68ZM916.8,177.46q-17.466,0-30.422-7.667a50.736,50.736,0,0,1-19.885-21.607q-6.929-13.94-6.929-32.226t6.929-32.226a50.735,50.735,0,0,1,19.885-21.607Q899.33,54.46,916.8,54.46t30.422,7.667A50.736,50.736,0,0,1,967.1,83.734q6.929,13.94,6.929,32.226T967.1,148.186a50.737,50.737,0,0,1-19.885,21.607Q934.262,177.46,916.8,177.46Zm0-20.992q10.988.164,18.532-4.8a30.086,30.086,0,0,0,11.316-14.1q3.772-9.143,3.772-21.607,0-12.382-3.772-21.443a29.978,29.978,0,0,0-11.275-13.981q-7.5-4.92-18.573-5.084-10.988-.164-18.532,4.8a30.086,30.086,0,0,0-11.316,14.1q-3.772,9.143-3.772,21.607,0,12.382,3.772,21.443a29.978,29.978,0,0,0,11.275,13.981Q905.726,156.3,916.8,156.468Zm122.836,20.992a55.9,55.9,0,0,1-27.962-7.175,51.976,51.976,0,0,1-20.254-21.074q-7.544-13.9-7.544-33.251,0-19.024,7.38-32.964a51.688,51.688,0,0,1,20.09-21.238,55.791,55.791,0,0,1,28.29-7.3q22.3,0,35.547,10.373t17.753,30.135l-22.8,3.28q-3.28-10.66-10.66-16.687t-18.368-6.109q-10.988-.164-18.532,4.8a30.086,30.086,0,0,0-11.316,14.1q-3.772,9.143-3.772,21.607,0,12.382,3.772,21.443a29.978,29.978,0,0,0,11.275,13.981q7.5,4.92,18.573,5.084,11.808.246,19.762-6.437t10.578-20.3h-18.7v-17.22h42.476q.164,1.64.246,3.731t.082,3.157q0,16.892-6.888,30.094a50.169,50.169,0,0,1-19.557,20.582q-12.665,7.388-29.475,7.388Zm121.524,0a55.9,55.9,0,0,1-27.962-7.175,51.977,51.977,0,0,1-20.254-21.074q-7.544-13.9-7.544-33.251,0-19.024,7.38-32.964a51.689,51.689,0,0,1,20.09-21.238,55.791,55.791,0,0,1,28.29-7.3q22.3,0,35.547,10.373t17.753,30.135l-22.8,3.28q-3.28-10.66-10.66-16.687t-18.368-6.109q-10.988-.164-18.532,4.8a30.086,30.086,0,0,0-11.316,14.1q-3.772,9.143-3.772,21.607,0,12.382,3.772,21.443a29.977,29.977,0,0,0,11.275,13.981q7.5,4.92,18.573,5.084,11.808.246,19.762-6.437t10.578-20.3h-18.7v-17.22h42.476q.164,1.64.246,3.731t.082,3.157q0,16.892-6.888,30.094a50.171,50.171,0,0,1-19.557,20.582q-12.665,7.388-29.475,7.388Z" transform="translate(-634 -25)"/>
    <path id="Path_196" data-name="Path 196" d="M108.946,56.36h37.746a120.4,120.4,0,0,1,13.932.648,45.158,45.158,0,0,1,23.611,9.639,50.932,50.932,0,0,1,15.106,20.534,71.171,71.171,0,0,1,5.184,27.5,71.171,71.171,0,0,1-5.184,27.5,50.932,50.932,0,0,1-15.106,20.533,45.158,45.158,0,0,1-23.611,9.639,120.4,120.4,0,0,1-13.932.648H108.946Zm37.746,95.9a70.84,70.84,0,0,0,12.636-.81,21.645,21.645,0,0,0,12.191-6.925,34.852,34.852,0,0,0,7.29-13.284,58.647,58.647,0,0,0-.081-33.413,34.551,34.551,0,0,0-7.371-13.2,21.429,21.429,0,0,0-12.028-6.723,34.544,34.544,0,0,0-5.832-.688q-3.159-.122-6.8-.121H131.3v75.168Zm77.274-95.9h76.14V76.934H246v24.948h44.388v20.574H246v29.97h54.108V173h-76.14ZM363.61,175.43a57.4,57.4,0,0,1-23.368-4.617,42.364,42.364,0,0,1-25.555-33.453l23-3.4a27.622,27.622,0,0,0,5.589,11.3,25.594,25.594,0,0,0,9.6,7.168,30.428,30.428,0,0,0,12.19,2.43,32.874,32.874,0,0,0,10.692-1.742,20.031,20.031,0,0,0,8.3-5.143,11.319,11.319,0,0,0,3.2-8.019,10.515,10.515,0,0,0-1.013-4.617,10.881,10.881,0,0,0-3.483-3.928,22.238,22.238,0,0,0-6.845-3.118l-30.294-8.91a62.278,62.278,0,0,1-12.19-4.779,27.927,27.927,0,0,1-9.882-9.234q-4.334-6.318-4.333-16.443,0-11.34,5.751-19.238A34.385,34.385,0,0,1,340.606,57.9,59.108,59.108,0,0,1,362.8,54.092a57.363,57.363,0,0,1,21.546,4.131,41.171,41.171,0,0,1,15.876,11.583,46.508,46.508,0,0,1,9.234,18.468l-23.814,4.05a20.654,20.654,0,0,0-4.7-9.436,23.242,23.242,0,0,0-8.262-5.994,28.635,28.635,0,0,0-20.047-.81,17.348,17.348,0,0,0-7.452,4.657,10.184,10.184,0,0,0-2.794,7.047,8.632,8.632,0,0,0,2.187,5.994,15.431,15.431,0,0,0,5.508,3.848,59.211,59.211,0,0,0,7.857,2.632l20.25,5.508a98.182,98.182,0,0,1,15.351,5.43,31.513,31.513,0,0,1,11.785,9.72q5.1,6.642,5.1,17.415,0,11.988-6.521,20.372a39.437,39.437,0,0,1-17.2,12.551,62.958,62.958,0,0,1-23.09,4.172ZM429.868,56.36H451.9V173H429.868ZM524.8,175.43a55.217,55.217,0,0,1-27.621-7.087,51.342,51.342,0,0,1-20.007-20.817Q469.72,133.8,469.72,114.68q0-18.792,7.29-32.562a51.058,51.058,0,0,1,19.845-20.979A55.111,55.111,0,0,1,524.8,53.93q22.032,0,35.113,10.246T577.45,93.944l-22.518,3.24q-3.24-10.53-10.53-16.483t-18.144-6.035Q515.4,74.5,507.952,79.4a29.719,29.719,0,0,0-11.178,13.932q-3.726,9.032-3.726,21.343,0,12.231,3.726,21.182a29.612,29.612,0,0,0,11.137,13.811q7.411,4.86,18.346,5.022,11.664.243,19.521-6.359t10.449-20.048H537.76v-17.01h41.958q.162,1.62.243,3.686t.081,3.118q0,16.686-6.8,29.727a49.558,49.558,0,0,1-19.319,20.331Q541.405,175.43,524.8,175.43ZM596.242,56.36H618.6l50.7,77.76V56.36h22.36V173H669.3L618.6,95.24V173H596.242Z" transform="translate(-109 127)"/>
    <path id="UNIQUE_DESIGN_SUSTAINABLE_INNOVATION" data-name="UNIQUE DESIGN / SUSTAINABLE INNOVATION" d="M10.514-3.731c4.692,0,8.064-3.167,8.064-7.918V-25.285H17.347v13.226A6.765,6.765,0,0,1,10.514-4.9a6.765,6.765,0,0,1-6.833-7.155V-25.285H2.45v13.636C2.45-6.869,5.822-3.731,10.514-3.731Zm12.17-.44h1.232V-23.115L36.76-4.171h1.232V-25.285H36.76V-6.37L23.916-25.285H22.684Zm19.706,0h1.232V-25.285H42.391Zm23.4-10.557c0-6.452-3.167-11-9.472-11s-9.472,4.545-9.472,11,3.167,11,9.472,11a9.006,9.006,0,0,0,6.2-2.141L64.649-3.76l.938-.968L63.461-6.854A12.451,12.451,0,0,0,65.792-14.728ZM56.32-4.963c-5.425,0-8.211-4.047-8.152-9.765s2.727-9.765,8.152-9.765,8.152,4.047,8.152,9.765a11.355,11.355,0,0,1-1.965,6.921L60.25-10.065l-.968.968,2.3,2.3A7.624,7.624,0,0,1,56.32-4.963ZM76.789-3.731c4.692,0,8.064-3.167,8.064-7.918V-25.285H83.622v13.226A6.765,6.765,0,0,1,76.789-4.9a6.765,6.765,0,0,1-6.833-7.155V-25.285H68.725v13.636C68.725-6.869,72.1-3.731,76.789-3.731Zm12.17-.44h12.9V-5.4H90.191v-8.71H100.1v-1.232H90.191v-8.71h11.671v-1.232h-12.9Zm22.287,0h6.188a21.838,21.838,0,0,0,2.815-.147c4.663-.674,6.891-4.985,6.891-10.41,0-5.4-2.229-9.736-6.891-10.41a21.838,21.838,0,0,0-2.815-.147h-6.188Zm1.32-1.232V-24.053h4.868a17.127,17.127,0,0,1,2.61.176c4.164.7,5.777,4.34,5.777,9.149s-1.613,8.446-5.777,9.149a16.593,16.593,0,0,1-2.61.176Zm17.8,1.232h12.9V-5.4H131.6v-8.71h9.912v-1.232H131.6v-8.71h11.671v-1.232h-12.9Zm22.258.44c4.457,0,7.331-2.317,7.331-5.953,0-3.871-3.284-4.9-4.78-5.337l-4.369-1.32c-1.789-.528-4.223-1.349-4.223-3.871,0-2.4,2.258-4.281,5.572-4.281,3.46,0,6.07,2.082,6.481,5.161l1.232-.235c-.528-3.724-3.578-6.158-7.713-6.158-4.076,0-6.891,2.317-6.891,5.542,0,2.229,1.32,3.93,4.369,4.839l5.279,1.584c1.378.411,3.842,1.232,3.842,4.076s-2.434,4.721-6.129,4.721c-3.548,0-6.188-1.789-6.95-4.692l-1.232.235C145.2-5.931,148.343-3.731,152.624-3.731Zm10.557-.44h1.232V-25.285h-1.232Zm13.929.44c6.246,0,8.915-4.223,8.915-9.736a11.457,11.457,0,0,0-.059-1.261h-6.891V-13.5h5.63c0,5.073-2.17,8.534-7.6,8.534s-8.211-4.047-8.152-9.765,2.727-9.736,8.152-9.736a6.761,6.761,0,0,1,6.686,4.34l1.2-.5c-1.144-2.991-3.871-5.073-7.888-5.073-6.3,0-9.472,4.516-9.472,10.968S170.806-3.731,177.111-3.731Zm11.847-.44h1.232V-23.115L203.034-4.171h1.232V-25.285h-1.232V-6.37L190.19-25.285h-1.232Zm30.615-21.114-5.63,21.114h1.32l5.63-21.114ZM237.579-3.731c4.457,0,7.331-2.317,7.331-5.953,0-3.871-3.284-4.9-4.78-5.337l-4.369-1.32c-1.789-.528-4.223-1.349-4.223-3.871,0-2.4,2.258-4.281,5.572-4.281,3.46,0,6.07,2.082,6.481,5.161l1.232-.235c-.528-3.724-3.578-6.158-7.713-6.158-4.076,0-6.891,2.317-6.891,5.542,0,2.229,1.32,3.93,4.369,4.839l5.279,1.584c1.378.411,3.842,1.232,3.842,4.076s-2.434,4.721-6.129,4.721c-3.548,0-6.188-1.789-6.95-4.692L229.4-9.42C230.16-5.931,233.3-3.731,237.579-3.731Zm18.328,0c4.692,0,8.064-3.167,8.064-7.918V-25.285H262.74v13.226A6.765,6.765,0,0,1,255.907-4.9a6.765,6.765,0,0,1-6.833-7.155V-25.285h-1.232v13.636C247.843-6.869,251.215-3.731,255.907-3.731Zm18.3,0c4.457,0,7.331-2.317,7.331-5.953,0-3.871-3.284-4.9-4.78-5.337l-4.369-1.32c-1.789-.528-4.223-1.349-4.223-3.871,0-2.4,2.258-4.281,5.572-4.281,3.46,0,6.07,2.082,6.481,5.161l1.232-.235c-.528-3.724-3.578-6.158-7.712-6.158-4.076,0-6.891,2.317-6.891,5.542,0,2.229,1.32,3.93,4.369,4.839l5.279,1.584c1.378.411,3.842,1.232,3.842,4.076s-2.434,4.721-6.129,4.721c-3.548,0-6.188-1.789-6.95-4.692l-1.232.235C266.787-5.931,269.925-3.731,274.206-3.731Zm16.246-.44h1.232V-24.053h7.742v-1.232H282.71v1.232h7.742Zm24.633,0h1.32l-7.683-21.114H307.4L299.719-4.171h1.32l1.994-5.484h10.059Zm-11.627-6.657,4.589-12.683,4.619,12.683Zm15.879,6.657h1.232V-25.285h-1.232Zm5.63,0H326.2V-23.115L339.044-4.171h1.232V-25.285h-1.232V-6.37L326.2-25.285h-1.232Zm33.313,0h1.32l-7.683-21.114H350.6L342.915-4.171h1.32l1.994-5.484h10.059Zm-11.628-6.657,4.589-12.683,4.619,12.683Zm26.539-4.589a5.421,5.421,0,0,0,2.713-4.677c0-3.079-2.61-5.191-5.66-5.191H362.24V-4.171H370.8c3.431,0,6.158-2.082,6.158-5.689A5.831,5.831,0,0,0,373.193-15.417Zm-9.721-8.666h6.774c2.434,0,4.34,1.554,4.34,3.9a4.3,4.3,0,0,1-4.34,4.281h-6.774ZM370.217-5.4h-6.745v-9.3H370.8a4.883,4.883,0,0,1,4.809,4.956C375.612-6.986,373.267-5.4,370.217-5.4Zm9.941,1.232h11.73V-5.4h-10.5V-25.285h-1.232Zm14.223,0h12.9V-5.4H395.612v-8.71h9.912v-1.232h-9.912v-8.71h11.671v-1.232h-12.9Zm22.58,0h1.232V-25.285h-1.232Zm5.63,0h1.232V-23.115L436.667-4.171H437.9V-25.285h-1.232V-6.37L423.823-25.285h-1.232Zm19.413,0h1.232V-23.115L456.081-4.171h1.232V-25.285h-1.232V-6.37L443.236-25.285H442Zm27.712.44c6.3,0,9.472-4.545,9.472-11s-3.167-11-9.472-11-9.472,4.545-9.472,11S463.412-3.731,469.717-3.731Zm0-1.232c-5.425,0-8.211-4.047-8.152-9.765s2.727-9.765,8.152-9.765,8.152,4.047,8.152,9.765S475.142-4.963,469.717-4.963Zm17.3.792h1.32l7.683-21.114H494.7L487.664-5.96l-7.009-19.325h-1.32Zm23.049,0h1.32L503.7-25.285h-1.32L494.7-4.171h1.32l1.994-5.484h10.058Zm-11.627-6.657,4.589-12.683,4.619,12.683ZM518.25-4.171h1.232V-24.053h7.742v-1.232H510.508v1.232h7.742Zm11.613,0h1.232V-25.285h-1.232Zm13.929.44c6.3,0,9.472-4.545,9.472-11s-3.167-11-9.472-11-9.472,4.545-9.472,11S537.487-3.731,543.792-3.731Zm0-1.232c-5.425,0-8.211-4.047-8.152-9.765s2.727-9.765,8.152-9.765,8.152,4.047,8.152,9.765S549.217-4.963,543.792-4.963Zm12.4.792h1.232V-23.115L570.273-4.171H571.5V-25.285h-1.232V-6.37L557.428-25.285H556.2Z" transform="translate(3.582 357)"/>
  </g>
</svg>
