<svg xmlns="http://www.w3.org/2000/svg" xmlns:xlink="http://www.w3.org/1999/xlink" width="1222" height="216" viewBox="0 0 1222 216">
  <defs>
    <clipPath id="clip-Splash">
      <rect width="1222" height="216"/>
    </clipPath>
  </defs>
  <g id="Splash" clip-path="url(#clip-Splash)">
    <path id="Path_194" data-name="Path 194" d="M7,162.582H43.7a130.366,130.366,0,0,0,13.992-.643c27.425-3.458,42.377-27.746,42.377-57.261,0-29.435-14.952-53.8-42.377-57.261A130.359,130.359,0,0,0,43.7,46.774H7Zm19.589-18.256V65.03H43.7a71.946,71.946,0,0,1,12.713.885C72.324,68.97,79.68,85.779,79.68,104.678c0,18.176-6.956,35.627-23.267,38.764a71.948,71.948,0,0,1-12.713.885ZM158.436,33.343h17.59V15.65h-17.59Zm33.022,0h17.59V15.65h-17.59ZM183.7,164.995c34.541,0,55.169-24.368,55.169-60.317S218.243,44.361,183.7,44.361c-34.461,0-55.09,24.368-55.09,60.317S149.241,164.995,183.7,164.995Zm0-18.256c-23.187-.322-34.781-16.728-34.7-42.061s11.514-42.3,34.7-42.061c23.187.322,34.781,16.728,34.781,42.061S206.889,146.98,183.7,146.739Zm134.645,18.256c33.422,0,53.57-23.564,53.57-56.376,0-.643-.16-5.067-.32-6.756H330.821v15.2h20.309c-2.958,19.945-14.232,29.917-31.583,29.676-23.187-.322-34.781-16.728-34.7-42.061s11.514-42.3,34.7-41.981c15.272.08,25.266,8.927,29.664,22.6L368.88,82.16c-5.837-23.805-22.228-37.8-50.532-37.8-30.783,0-53.89,22.358-53.89,60.317C264.457,143.281,288.364,164.995,318.348,164.995Zm133.046,0c33.422,0,53.57-23.564,53.57-56.376,0-.643-.16-5.067-.32-6.756H463.867v15.2h20.309c-2.958,19.945-14.232,29.917-31.583,29.676-23.187-.322-34.781-16.728-34.7-42.061s11.514-42.3,34.7-41.981c15.272.08,25.266,8.927,29.664,22.6l19.669-3.136c-5.837-23.805-22.228-37.8-50.532-37.8-30.783,0-53.89,22.358-53.89,60.317C397.5,143.281,421.41,164.995,451.394,164.995Zm133.526-2.413h36.7a130.364,130.364,0,0,0,13.992-.643c27.425-3.458,42.377-27.746,42.377-57.261,0-29.435-14.952-53.8-42.377-57.261a130.36,130.36,0,0,0-13.992-.643h-36.7Zm19.589-18.256V65.03H621.62a71.947,71.947,0,0,1,12.713.885C650.244,68.97,657.6,85.779,657.6,104.678c0,18.176-6.956,35.627-23.267,38.764a71.949,71.949,0,0,1-12.713.885Zm108.42,18.256h74.359V144.407H732.2V111.675h45.495V93.5H732.2V64.949h55.089V46.774H712.929Zm151.116,2.413c23.667,0,45.175-12.063,45.175-36.11,0-23-19.669-28.791-30.863-31.847l-20.629-5.79C849.973,89.156,841.1,86.02,841.1,77.415c0-9.007,10.074-15.039,21.588-14.8,11.833.322,22.468,7.158,24.946,19.382l20.709-3.619c-5.117-21.473-21.748-33.617-45.415-33.858-23.427-.161-42.057,11.5-42.057,33.858,0,20.427,15.432,26.62,25.666,29.6l29.743,8.847c8.715,2.654,12.793,6.916,12.793,13.35,0,10.7-11.513,16.647-23.827,16.647-13.912,0-25.506-7.8-28.864-21.553l-19.989,3.056C819.99,151.082,838.859,164.995,864.045,164.995Zm80.116-2.413H963.43V46.774H944.161Zm106.741,2.413c33.422,0,53.57-23.564,53.57-56.376,0-.643-.16-5.067-.32-6.756h-40.777v15.2h20.309c-2.958,19.945-14.232,29.917-31.582,29.676-23.187-.322-34.781-16.728-34.7-42.061s11.514-42.3,34.7-41.981c15.272.08,25.266,8.927,29.664,22.6l19.669-3.136c-5.837-23.805-22.228-37.8-50.532-37.8-30.783,0-53.89,22.358-53.89,60.317C997.012,143.281,1020.918,164.995,1050.9,164.995Zm85.553-2.413h19.509V80.953l53.411,81.629h19.509V46.774h-19.509V128.4l-53.411-81.629h-19.509Z" transform="translate(-6.521 -15.717)"/>
    <text id="UNIQUE_DESIGN_SUSTAINABLE_INNOVATION" data-name="UNIQUE DESIGN / SUSTAINABLE INNOVATION" transform="translate(537 174)" font-size="35" font-family="Manrope-ExtraLight, Manrope" font-weight="200"><tspan x="0.462" y="37">UNIQUE DESIGN / SUSTAINABLE INNOVATION</tspan></text>
  </g>
</svg>
