<svg xmlns="http://www.w3.org/2000/svg" xmlns:xlink="http://www.w3.org/1999/xlink" width="1222" height="195" viewBox="0 0 1222 195">
  <defs>
    <clipPath id="clip-path">
      <rect id="Rectangle_58" data-name="Rectangle 58" width="1222" height="216"/>
    </clipPath>
    <clipPath id="clip-Splash">
      <rect width="1222" height="195"/>
    </clipPath>
  </defs>
  <g id="Splash" clip-path="url(#clip-Splash)">
    <g id="Splash-2" data-name="Splash" clip-path="url(#clip-path)">
      <path id="Path_194" data-name="Path 194" d="M7,162.582H43.7a130.372,130.372,0,0,0,13.992-.643c27.425-3.458,42.377-27.746,42.377-57.261,0-29.435-14.952-53.8-42.377-57.261A130.36,130.36,0,0,0,43.7,46.774H7Zm19.589-18.256V65.03H43.7a71.945,71.945,0,0,1,12.713.885C72.324,68.97,79.68,85.779,79.68,104.678c0,18.176-6.956,35.627-23.267,38.764a71.948,71.948,0,0,1-12.713.885ZM158.436,33.343h17.59V15.65h-17.59Zm33.022,0h17.59V15.65h-17.59ZM183.7,164.995c34.541,0,55.169-24.368,55.169-60.317S218.243,44.361,183.7,44.361c-34.461,0-55.09,24.368-55.09,60.317S149.241,164.995,183.7,164.995Zm0-18.256c-23.187-.322-34.781-16.728-34.7-42.061s11.514-42.3,34.7-42.061c23.187.322,34.781,16.728,34.781,42.061S206.889,146.98,183.7,146.739Zm134.645,18.256c33.422,0,53.57-23.564,53.57-56.376,0-.643-.16-5.067-.32-6.756H330.821v15.2H351.13c-2.958,19.945-14.232,29.917-31.583,29.676-23.187-.322-34.781-16.728-34.7-42.061s11.514-42.3,34.7-41.981c15.272.08,25.266,8.927,29.664,22.6L368.88,82.16c-5.837-23.805-22.228-37.8-50.532-37.8-30.783,0-53.89,22.358-53.89,60.317,0,38.6,23.906,60.318,53.89,60.318Zm133.046,0c33.422,0,53.57-23.564,53.57-56.376,0-.643-.16-5.067-.32-6.756H463.867v15.2h20.309c-2.958,19.945-14.232,29.917-31.583,29.676-23.187-.322-34.781-16.728-34.7-42.061s11.514-42.3,34.7-41.981c15.272.08,25.266,8.927,29.664,22.6l19.669-3.136c-5.837-23.805-22.228-37.8-50.532-37.8-30.783,0-53.89,22.358-53.89,60.317,0,38.6,23.906,60.317,53.89,60.317Zm133.526-2.413h36.7a130.363,130.363,0,0,0,13.992-.643c27.425-3.458,42.377-27.746,42.377-57.261,0-29.435-14.952-53.8-42.377-57.261a130.356,130.356,0,0,0-13.992-.643h-36.7Zm19.589-18.256V65.03H621.62a71.947,71.947,0,0,1,12.713.885C650.244,68.97,657.6,85.779,657.6,104.678c0,18.176-6.956,35.627-23.267,38.764a71.949,71.949,0,0,1-12.713.885Zm108.42,18.256h74.359V144.407H732.2V111.675H777.7V93.5H732.2V64.949h55.089V46.774h-74.36Zm151.116,2.413c23.667,0,45.175-12.063,45.175-36.11,0-23-19.669-28.791-30.863-31.847l-20.629-5.79C849.973,89.156,841.1,86.02,841.1,77.415c0-9.007,10.074-15.039,21.588-14.8,11.833.322,22.468,7.158,24.946,19.382l20.709-3.619C903.226,56.9,886.595,44.761,862.928,44.52c-23.427-.161-42.057,11.5-42.057,33.858,0,20.427,15.432,26.62,25.666,29.6l29.743,8.847c8.715,2.654,12.793,6.916,12.793,13.35,0,10.7-11.513,16.647-23.827,16.647-13.912,0-25.506-7.8-28.864-21.553l-19.989,3.056c3.6,22.757,22.466,36.67,47.652,36.67Zm80.116-2.413H963.43V46.774H944.161Zm106.741,2.413c33.422,0,53.57-23.564,53.57-56.376,0-.643-.16-5.067-.32-6.756h-40.777v15.2h20.309c-2.958,19.945-14.232,29.917-31.582,29.676-23.187-.322-34.781-16.728-34.7-42.061s11.514-42.3,34.7-41.981c15.272.08,25.266,8.927,29.664,22.6l19.669-3.136c-5.837-23.805-22.228-37.8-50.532-37.8-30.783,0-53.89,22.358-53.89,60.317,0,38.6,23.908,60.317,53.89,60.317Zm85.553-2.413h19.509V80.953l53.411,81.629h19.509V46.774h-19.509V128.4l-53.411-81.629h-19.509Z" transform="translate(-6.521 -15.717)"/>
      <path id="UNIQUE_DESIGN_SUSTAINABLE_INNOVATION" data-name="UNIQUE DESIGN / SUSTAINABLE INNOVATION" d="M12.075.525c5.6,0,9.625-3.78,9.625-9.45V-25.2H20.23V-9.415a8.075,8.075,0,0,1-8.155,8.54A8.075,8.075,0,0,1,3.92-9.415V-25.2H2.45V-8.925C2.45-3.22,6.475.525,12.075.525ZM26.6,0h1.47V-22.61L43.4,0h1.47V-25.2H43.4V-2.625L28.07-25.2H26.6ZM50.12,0h1.47V-25.2H50.12ZM78.05-12.6c0-7.7-3.78-13.125-11.305-13.125S55.44-20.3,55.44-12.6,59.22.525,66.745.525a10.749,10.749,0,0,0,7.4-2.555L76.685.49l1.12-1.155L75.268-3.2C77.123-5.513,78.05-8.785,78.05-12.6ZM66.745-.945c-6.475,0-9.8-4.83-9.73-11.655s3.255-11.655,9.73-11.655,9.73,4.83,9.73,11.655A13.553,13.553,0,0,1,74.13-4.34l-2.7-2.7L70.28-5.88l2.748,2.748A9.1,9.1,0,0,1,66.745-.945ZM91.175.525c5.6,0,9.625-3.78,9.625-9.45V-25.2H99.33V-9.415a8.075,8.075,0,0,1-8.155,8.54,8.075,8.075,0,0,1-8.155-8.54V-25.2H81.55V-8.925C81.55-3.22,85.575.525,91.175.525ZM105.7,0h15.4V-1.47H107.17v-10.4H119v-1.47H107.17v-10.4H121.1V-25.2H105.7Zm26.6,0h7.385a26.064,26.064,0,0,0,3.36-.175c5.565-.805,8.225-5.95,8.225-12.425,0-6.44-2.66-11.62-8.225-12.425a26.064,26.064,0,0,0-3.36-.175H132.3Zm1.575-1.47V-23.73h5.81a20.441,20.441,0,0,1,3.115.21c4.97.84,6.9,5.18,6.9,10.92S147.77-2.52,142.8-1.68a19.8,19.8,0,0,1-3.115.21ZM155.12,0h15.4V-1.47H156.59v-10.4h11.83v-1.47H156.59v-10.4h13.93V-25.2h-15.4Zm26.565.525c5.32,0,8.75-2.765,8.75-7.105,0-4.62-3.92-5.845-5.705-6.37l-5.215-1.575c-2.135-.63-5.04-1.61-5.04-4.62,0-2.87,2.7-5.11,6.65-5.11,4.13,0,7.245,2.485,7.735,6.16l1.47-.28c-.63-4.445-4.27-7.35-9.205-7.35-4.865,0-8.225,2.765-8.225,6.615,0,2.66,1.575,4.69,5.215,5.775l6.3,1.89c1.645.49,4.585,1.47,4.585,4.865s-2.9,5.635-7.315,5.635c-4.235,0-7.385-2.135-8.295-5.6l-1.47.28C172.83-2.1,176.575.525,181.685.525ZM194.285,0h1.47V-25.2h-1.47ZM210.91.525c7.455,0,10.64-5.04,10.64-11.62a13.674,13.674,0,0,0-.07-1.505h-8.225v1.47h6.72c0,6.055-2.59,10.185-9.065,10.185s-9.8-4.83-9.73-11.655,3.255-11.62,9.73-11.62a8.07,8.07,0,0,1,7.98,5.18l1.435-.6c-1.365-3.57-4.62-6.055-9.415-6.055-7.525,0-11.3,5.39-11.3,13.09S203.385.525,210.91.525ZM225.05,0h1.47V-22.61L241.85,0h1.47V-25.2h-1.47V-2.625L226.52-25.2h-1.47Zm36.54-25.2L254.87,0h1.575l6.72-25.2ZM283.08.525c5.32,0,8.75-2.765,8.75-7.105,0-4.62-3.92-5.845-5.7-6.37l-5.215-1.575c-2.135-.63-5.04-1.61-5.04-4.62,0-2.87,2.695-5.11,6.65-5.11,4.13,0,7.245,2.485,7.735,6.16l1.47-.28c-.63-4.445-4.27-7.35-9.2-7.35-4.865,0-8.225,2.765-8.225,6.615,0,2.66,1.575,4.69,5.215,5.775l6.3,1.89c1.645.49,4.585,1.47,4.585,4.865s-2.9,5.635-7.315,5.635c-4.235,0-7.385-2.135-8.3-5.6l-1.47.28C274.225-2.1,277.97.525,283.08.525Zm21.875,0c5.6,0,9.625-3.78,9.625-9.45V-25.2h-1.47V-9.415a8.075,8.075,0,0,1-8.155,8.54,8.075,8.075,0,0,1-8.155-8.54V-25.2h-1.47V-8.925C295.33-3.22,299.355.525,304.955.525Zm21.84,0c5.32,0,8.75-2.765,8.75-7.105,0-4.62-3.92-5.845-5.7-6.37l-5.215-1.575c-2.135-.63-5.04-1.61-5.04-4.62,0-2.87,2.695-5.11,6.65-5.11,4.13,0,7.245,2.485,7.735,6.16l1.47-.28c-.63-4.445-4.27-7.35-9.2-7.35-4.865,0-8.225,2.765-8.225,6.615,0,2.66,1.575,4.69,5.215,5.775l6.3,1.89c1.645.49,4.585,1.47,4.585,4.865s-2.9,5.635-7.315,5.635c-4.235,0-7.385-2.135-8.3-5.6l-1.47.28C317.94-2.1,321.685.525,326.8.525ZM346.185,0h1.47V-23.73h9.24V-25.2h-19.95v1.47h9.24Zm29.4,0h1.575l-9.17-25.2h-1.575L357.245,0h1.575l2.38-6.545h12.005ZM361.708-7.945l5.478-15.138L372.7-7.945ZM380.66,0h1.47V-25.2h-1.47Zm6.72,0h1.47V-22.61L404.18,0h1.47V-25.2h-1.47V-2.625L388.85-25.2h-1.47Zm39.76,0h1.575l-9.17-25.2H417.97L408.8,0h1.575l2.38-6.545H424.76ZM413.263-7.945l5.478-15.138,5.512,15.138Zm31.675-5.478a6.47,6.47,0,0,0,3.238-5.583c0-3.675-3.115-6.2-6.755-6.2h-9.555V0h10.22c4.1,0,7.35-2.485,7.35-6.79A6.96,6.96,0,0,0,444.938-13.423Zm-11.6-10.343h8.085c2.9,0,5.18,1.855,5.18,4.655A5.131,5.131,0,0,1,441.42-14h-8.085Zm8.05,22.3h-8.05v-11.1h8.75a5.828,5.828,0,0,1,5.74,5.915C447.825-3.36,445.025-1.47,441.385-1.47ZM453.25,0h14V-1.47H454.72V-25.2h-1.47Zm16.975,0h15.4V-1.47H471.7v-10.4h11.83v-1.47H471.7v-10.4h13.93V-25.2h-15.4Zm26.95,0h1.47V-25.2h-1.47Zm6.72,0h1.47V-22.61L520.7,0h1.47V-25.2H520.7V-2.625L505.365-25.2H503.9Zm23.17,0h1.47V-22.61L543.865,0h1.47V-25.2h-1.47V-2.625L528.535-25.2h-1.47ZM560.14.525c7.525,0,11.3-5.425,11.3-13.125s-3.78-13.125-11.3-13.125-11.3,5.425-11.3,13.125S552.615.525,560.14.525Zm0-1.47c-6.475,0-9.8-4.83-9.73-11.655s3.255-11.655,9.73-11.655,9.73,4.83,9.73,11.655S566.615-.945,560.14-.945ZM580.79,0h1.575l9.17-25.2H589.96l-8.4,23.065L573.2-25.2H571.62ZM608.3,0h1.575l-9.17-25.2H599.13L589.96,0h1.575l2.38-6.545h12ZM594.422-7.945,599.9-23.083l5.513,15.138ZM618.065,0h1.47V-23.73h9.24V-25.2h-19.95v1.47h9.24Zm13.86,0h1.47V-25.2h-1.47ZM648.55.525c7.525,0,11.3-5.425,11.3-13.125s-3.78-13.125-11.3-13.125-11.3,5.425-11.3,13.125S641.025.525,648.55.525Zm0-1.47c-6.475,0-9.8-4.83-9.73-11.655s3.255-11.655,9.73-11.655,9.73,4.83,9.73,11.655S655.025-.945,648.55-.945ZM663.355,0h1.47V-22.61L680.155,0h1.47V-25.2h-1.47V-2.625L664.825-25.2h-1.47Z" transform="translate(537.462 194)"/>
    </g>
  </g>
</svg>
