<svg xmlns="http://www.w3.org/2000/svg" xmlns:xlink="http://www.w3.org/1999/xlink" width="804" height="30" viewBox="0 0 804 30">
  <defs>
    <clipPath id="clip-Artboard_2">
      <rect width="804" height="30"/>
    </clipPath>
  </defs>
  <g id="Artboard_2" data-name="Artboard – 2" clip-path="url(#clip-Artboard_2)">
    <path id="Path_198" data-name="Path 198" d="M15.87,43.6a12.2,12.2,0,0,1-5.83-1.36,9.817,9.817,0,0,1-3.98-3.86A11.435,11.435,0,0,1,4.63,32.6V14.22l2.96-.02V32.22a8.713,8.713,0,0,0,1.24,4.77,7.778,7.778,0,0,0,3.15,2.89,8.722,8.722,0,0,0,3.89.94,8.626,8.626,0,0,0,3.9-.95,7.891,7.891,0,0,0,3.14-2.89,8.662,8.662,0,0,0,1.24-4.76V14.2h2.96V32.6a11.4,11.4,0,0,1-1.43,5.76,9.868,9.868,0,0,1-3.99,3.87A12.141,12.141,0,0,1,15.87,43.6ZM32.71,14.2h2.96L51.53,37.8V14.2h2.96V43H51.53L35.67,19.38V43H32.71Zm27.78,0h2.94V43H60.49ZM94.37,28.6a20.622,20.622,0,0,1-.76,5.76,13.531,13.531,0,0,1-2.26,4.56l2.66,2.66-1.96,2-2.66-2.64a12.853,12.853,0,0,1-8.3,2.66,13.222,13.222,0,0,1-7.2-1.88,11.866,11.866,0,0,1-4.52-5.27,18.808,18.808,0,0,1-1.54-7.85,18.808,18.808,0,0,1,1.54-7.85,11.866,11.866,0,0,1,4.52-5.27,14.746,14.746,0,0,1,14.41,0,11.846,11.846,0,0,1,4.53,5.27A18.808,18.808,0,0,1,94.37,28.6ZM81.09,40.78a9.724,9.724,0,0,0,6.18-1.94l-2.9-2.9,2-2,2.8,2.8a12.034,12.034,0,0,0,1.55-3.63,18.153,18.153,0,0,0,.53-4.51,16.389,16.389,0,0,0-1.15-6.38,9.292,9.292,0,0,0-3.43-4.26,9.947,9.947,0,0,0-5.58-1.54,9.737,9.737,0,0,0-5.56,1.52,9.277,9.277,0,0,0-3.4,4.26,17.067,17.067,0,0,0-1.18,6.4,15.928,15.928,0,0,0,1.11,6.38,9.269,9.269,0,0,0,3.44,4.26A10,10,0,0,0,81.09,40.78Zm28.52,2.82a12.2,12.2,0,0,1-5.83-1.36,9.817,9.817,0,0,1-3.98-3.86,11.435,11.435,0,0,1-1.43-5.78V14.22l2.96-.02V32.22a8.713,8.713,0,0,0,1.24,4.77,7.778,7.778,0,0,0,3.15,2.89,8.722,8.722,0,0,0,3.89.94,8.626,8.626,0,0,0,3.9-.95,7.891,7.891,0,0,0,3.14-2.89,8.662,8.662,0,0,0,1.24-4.76V14.2h2.96V32.6a11.4,11.4,0,0,1-1.43,5.76,9.868,9.868,0,0,1-3.99,3.87A12.141,12.141,0,0,1,109.61,43.6Zm16.84-29.4h18v2.82H129.39v9.96h12.66V29.8H129.39V40.18h15.06V43h-18Zm39.54,0a29.981,29.981,0,0,1,3.7.18,10.087,10.087,0,0,1,5.41,2.4,12.057,12.057,0,0,1,3.35,5.02,19.663,19.663,0,0,1,1.12,6.8,19.725,19.725,0,0,1-1.12,6.82,12.024,12.024,0,0,1-3.34,5.01,10.089,10.089,0,0,1-5.42,2.39,29.39,29.39,0,0,1-3.7.18h-8.74V14.2Zm0,25.98a18.6,18.6,0,0,0,3.4-.24,7.215,7.215,0,0,0,5.33-3.68,15.392,15.392,0,0,0,1.73-7.66,15.25,15.25,0,0,0-1.74-7.66,7.3,7.3,0,0,0-5.32-3.68,18.6,18.6,0,0,0-3.4-.24h-5.7V40.18ZM184.11,14.2h18v2.82H187.05v9.96h12.66V29.8H187.05V40.18h15.06V43h-18Zm31.74,29.4a13.948,13.948,0,0,1-5.42-1.01,10.279,10.279,0,0,1-3.99-2.88,9.462,9.462,0,0,1-2.05-4.41l3-.5a7.56,7.56,0,0,0,1.69,3.19,7.969,7.969,0,0,0,2.98,2.07,10.285,10.285,0,0,0,3.91.72,10.131,10.131,0,0,0,3.81-.68,6.065,6.065,0,0,0,2.64-1.93,4.675,4.675,0,0,0,.95-2.91,3.749,3.749,0,0,0-1.24-3.03,8.721,8.721,0,0,0-3.18-1.63l-7.3-2.18q-6.14-1.82-6.14-6.9a7.066,7.066,0,0,1,1.27-4.18,8.073,8.073,0,0,1,3.5-2.76,12.71,12.71,0,0,1,5.07-.96,12.526,12.526,0,0,1,5.15,1.02,9.688,9.688,0,0,1,3.77,2.92,10.014,10.014,0,0,1,1.94,4.46l-3.08.56a6.794,6.794,0,0,0-1.37-3.23A7.277,7.277,0,0,0,219,17.2a8.977,8.977,0,0,0-3.67-.78,8.884,8.884,0,0,0-3.44.64,5.7,5.7,0,0,0-2.41,1.78,4.114,4.114,0,0,0-.87,2.56,3.343,3.343,0,0,0,.76,2.25,5.254,5.254,0,0,0,1.83,1.38,18.218,18.218,0,0,0,2.53.91l5.64,1.66a19.023,19.023,0,0,1,3.22,1.22,7.382,7.382,0,0,1,2.62,2.27,6.587,6.587,0,0,1,1.16,4.05,7.605,7.605,0,0,1-1.36,4.53,8.572,8.572,0,0,1-3.75,2.92A13.78,13.78,0,0,1,215.85,43.6Zm15.06-29.4h2.94V43h-2.94Zm20.48,29.4a12.989,12.989,0,0,1-7-1.84,11.968,11.968,0,0,1-4.55-5.23,18.5,18.5,0,0,1-1.59-7.93,18.583,18.583,0,0,1,1.57-7.9,11.9,11.9,0,0,1,4.54-5.23,13.024,13.024,0,0,1,7.03-1.85,12.4,12.4,0,0,1,7.41,2.1,11.028,11.028,0,0,1,4.11,5.82l-2.96.72a8.707,8.707,0,0,0-3.16-4.25,8.874,8.874,0,0,0-5.28-1.55,9.676,9.676,0,0,0-5.56,1.49,9.215,9.215,0,0,0-3.4,4.25,17.067,17.067,0,0,0-1.18,6.4,15.928,15.928,0,0,0,1.11,6.38,9.269,9.269,0,0,0,3.44,4.26,10,10,0,0,0,5.59,1.54q4.5.02,6.82-2.58a11.607,11.607,0,0,0,2.56-7.36h-6.64V28.32h9.72q.08.82.08,1.7a16.471,16.471,0,0,1-1.43,7.03,10.918,10.918,0,0,1-4.27,4.81A13.086,13.086,0,0,1,251.39,43.6Zm16.66-29.4h2.96l15.86,23.6V14.2h2.96V43h-2.96L271.01,19.38V43h-2.96Zm45.68,0L306.05,43h-3.02l7.68-28.8Zm23.2,29.4a13.948,13.948,0,0,1-5.42-1.01,10.279,10.279,0,0,1-3.99-2.88,9.462,9.462,0,0,1-2.05-4.41l3-.5a7.56,7.56,0,0,0,1.69,3.19,7.969,7.969,0,0,0,2.98,2.07,10.285,10.285,0,0,0,3.91.72,10.131,10.131,0,0,0,3.81-.68,6.065,6.065,0,0,0,2.64-1.93,4.675,4.675,0,0,0,.95-2.91,3.749,3.749,0,0,0-1.24-3.03,8.721,8.721,0,0,0-3.18-1.63l-7.3-2.18q-6.14-1.82-6.14-6.9a7.066,7.066,0,0,1,1.27-4.18,8.073,8.073,0,0,1,3.5-2.76,12.71,12.71,0,0,1,5.07-.96,12.526,12.526,0,0,1,5.15,1.02,9.689,9.689,0,0,1,3.77,2.92,10.014,10.014,0,0,1,1.94,4.46l-3.08.56a6.794,6.794,0,0,0-1.37-3.23,7.277,7.277,0,0,0-2.76-2.15,8.977,8.977,0,0,0-3.67-.78,8.884,8.884,0,0,0-3.44.64,5.7,5.7,0,0,0-2.41,1.78,4.114,4.114,0,0,0-.87,2.56,3.343,3.343,0,0,0,.76,2.25,5.254,5.254,0,0,0,1.83,1.38,18.219,18.219,0,0,0,2.53.91l5.64,1.66a19.024,19.024,0,0,1,3.22,1.22,7.383,7.383,0,0,1,2.62,2.27,6.587,6.587,0,0,1,1.16,4.05,7.605,7.605,0,0,1-1.36,4.53,8.572,8.572,0,0,1-3.75,2.92A13.78,13.78,0,0,1,336.93,43.6Zm25.9,0A12.2,12.2,0,0,1,357,42.24a9.818,9.818,0,0,1-3.98-3.86,11.435,11.435,0,0,1-1.43-5.78V14.22l2.96-.02V32.22a8.713,8.713,0,0,0,1.24,4.77,7.778,7.778,0,0,0,3.15,2.89,8.723,8.723,0,0,0,3.89.94,8.626,8.626,0,0,0,3.9-.95,7.89,7.89,0,0,0,3.14-2.89,8.662,8.662,0,0,0,1.24-4.76V14.2h2.96V32.6a11.4,11.4,0,0,1-1.43,5.76,9.868,9.868,0,0,1-3.99,3.87A12.14,12.14,0,0,1,362.83,43.6Zm25.64,0a13.948,13.948,0,0,1-5.42-1.01,10.279,10.279,0,0,1-3.99-2.88,9.462,9.462,0,0,1-2.05-4.41l3-.5a7.56,7.56,0,0,0,1.69,3.19,7.969,7.969,0,0,0,2.98,2.07,10.285,10.285,0,0,0,3.91.72,10.131,10.131,0,0,0,3.81-.68,6.065,6.065,0,0,0,2.64-1.93,4.675,4.675,0,0,0,.95-2.91,3.749,3.749,0,0,0-1.24-3.03,8.721,8.721,0,0,0-3.18-1.63l-7.3-2.18q-6.14-1.82-6.14-6.9a7.066,7.066,0,0,1,1.27-4.18,8.073,8.073,0,0,1,3.5-2.76,12.71,12.71,0,0,1,5.07-.96,12.526,12.526,0,0,1,5.15,1.02,9.689,9.689,0,0,1,3.77,2.92,10.014,10.014,0,0,1,1.94,4.46l-3.08.56a6.794,6.794,0,0,0-1.37-3.23,7.277,7.277,0,0,0-2.76-2.15,8.977,8.977,0,0,0-3.67-.78,8.884,8.884,0,0,0-3.44.64,5.7,5.7,0,0,0-2.41,1.78,4.114,4.114,0,0,0-.87,2.56,3.343,3.343,0,0,0,.76,2.25,5.254,5.254,0,0,0,1.83,1.38,18.219,18.219,0,0,0,2.53.91l5.64,1.66a19.024,19.024,0,0,1,3.22,1.22,7.383,7.383,0,0,1,2.62,2.27,6.587,6.587,0,0,1,1.16,4.05,7.605,7.605,0,0,1-1.36,4.53,8.572,8.572,0,0,1-3.75,2.92A13.78,13.78,0,0,1,388.47,43.6Zm22.32-26.58H400.73V14.2h23.06v2.82H413.73V43h-2.94ZM444.87,43l-2.42-6.98h-12.8L427.25,43h-3.06l9.92-28.8h3.9L447.93,43Zm-14.26-9.74h10.88l-5.46-15.74ZM451.93,14.2h2.94V43h-2.94Zm8.94,0h2.96l15.86,23.6V14.2h2.96V43h-2.96L463.83,19.38V43h-2.96ZM506.93,43l-2.42-6.98h-12.8L489.31,43h-3.06l9.92-28.8h3.9L509.99,43Zm-14.26-9.74h10.88l-5.46-15.74Zm36.68-5.54a7.845,7.845,0,0,1,3.53,2.85,7.643,7.643,0,0,1,1.25,4.35,8.407,8.407,0,0,1-1.06,4.29,7.092,7.092,0,0,1-2.98,2.81,9.682,9.682,0,0,1-4.46.98H513.59V14.2h11.12a8.608,8.608,0,0,1,4.18.99,7.361,7.361,0,0,1,2.93,10.01A6.551,6.551,0,0,1,529.35,27.72Zm-12.8-1.24h8.14a5.122,5.122,0,0,0,2.52-.63,4.753,4.753,0,0,0,1.81-1.75,4.813,4.813,0,0,0,.67-2.52,4.5,4.5,0,0,0-.64-2.39,4.342,4.342,0,0,0-1.78-1.63,5.608,5.608,0,0,0-2.58-.58h-8.14Zm8.36,13.7a7.62,7.62,0,0,0,3.16-.63,5.2,5.2,0,0,0,2.21-1.81,4.791,4.791,0,0,0,.81-2.78,5.719,5.719,0,0,0-.74-2.88,5.524,5.524,0,0,0-4.9-2.82h-8.9V40.18Zm13.6-25.98h2.94V40.18h13.68V43H538.51Zm20.02,0h18v2.82H561.47v9.96h12.66V29.8H561.47V40.18h15.06V43h-18Zm31.2,0h2.94V43h-2.94Zm8.94,0h2.96l15.86,23.6V14.2h2.96V43h-2.96L601.63,19.38V43h-2.96Zm27.38,0h2.96l15.86,23.6V14.2h2.96V43h-2.96L629.01,19.38V43h-2.96Zm39.04,29.4a13.222,13.222,0,0,1-7.2-1.88,11.866,11.866,0,0,1-4.52-5.27,18.808,18.808,0,0,1-1.54-7.85,18.808,18.808,0,0,1,1.54-7.85,11.866,11.866,0,0,1,4.52-5.27,14.746,14.746,0,0,1,14.41,0,11.846,11.846,0,0,1,4.53,5.27,18.808,18.808,0,0,1,1.54,7.85,18.808,18.808,0,0,1-1.54,7.85,11.846,11.846,0,0,1-4.53,5.27A13.273,13.273,0,0,1,665.09,43.6Zm0-2.82a9.834,9.834,0,0,0,5.58-1.52A9.292,9.292,0,0,0,674.1,35a16.446,16.446,0,0,0,1.15-6.4,16.389,16.389,0,0,0-1.15-6.38,9.292,9.292,0,0,0-3.43-4.26,9.947,9.947,0,0,0-5.58-1.54,9.737,9.737,0,0,0-5.56,1.52,9.277,9.277,0,0,0-3.4,4.26,17.067,17.067,0,0,0-1.18,6.4,15.928,15.928,0,0,0,1.11,6.38,9.269,9.269,0,0,0,3.44,4.26A10,10,0,0,0,665.09,40.78ZM678.57,14.2h3.06l8.78,25.46,8.84-25.46h3.06L692.39,43h-3.9ZM721.19,43l-2.42-6.98h-12.8L703.57,43h-3.06l9.92-28.8h3.9L724.25,43Zm-14.26-9.74h10.88l-5.46-15.74Zm26.18-16.24H723.05V14.2h23.06v2.82H736.05V43h-2.94Zm16.6-2.82h2.94V43h-2.94Zm20.6,29.4a13.222,13.222,0,0,1-7.2-1.88,11.866,11.866,0,0,1-4.52-5.27,18.808,18.808,0,0,1-1.54-7.85,18.808,18.808,0,0,1,1.54-7.85,11.866,11.866,0,0,1,4.52-5.27,14.746,14.746,0,0,1,14.41,0,11.846,11.846,0,0,1,4.53,5.27,18.808,18.808,0,0,1,1.54,7.85,18.808,18.808,0,0,1-1.54,7.85,11.846,11.846,0,0,1-4.53,5.27A13.273,13.273,0,0,1,770.31,43.6Zm0-2.82a9.834,9.834,0,0,0,5.58-1.52A9.292,9.292,0,0,0,779.32,35a16.446,16.446,0,0,0,1.15-6.4,16.389,16.389,0,0,0-1.15-6.38,9.292,9.292,0,0,0-3.43-4.26,9.947,9.947,0,0,0-5.58-1.54,9.737,9.737,0,0,0-5.56,1.52,9.277,9.277,0,0,0-3.4,4.26,17.067,17.067,0,0,0-1.18,6.4,15.928,15.928,0,0,0,1.11,6.38,9.269,9.269,0,0,0,3.44,4.26A10,10,0,0,0,770.31,40.78ZM787.59,14.2h2.96l15.86,23.6V14.2h2.96V43h-2.96L790.55,19.38V43h-2.96Z" transform="translate(-5 -14)"/>
  </g>
</svg>
